<svg xmlns="http://www.w3.org/2000/svg" viewBox="0 0 512 512" width="512" height="512">
  <defs>
    <linearGradient id="bgGrad" x1="50%" y1="0%" x2="50%" y2="100%">
      <stop offset="0%" stop-color="#6366f1"/>
      <stop offset="100%" stop-color="#7c3aed"/>
    </linearGradient>
    <radialGradient id="innerGlow" cx="50%" cy="40%" r="55%">
      <stop offset="0%" stop-color="rgba(255,255,255,0.12)"/>
      <stop offset="100%" stop-color="rgba(255,255,255,0)"/>
    </radialGradient>
    <filter id="dropShadow" x="-10%" y="-5%" width="120%" height="120%">
      <feDropShadow dx="0" dy="4" stdDeviation="10" flood-color="rgba(99,102,241,0.35)"/>
    </filter>
  </defs>

  <!-- Circle background -->
  <g filter="url(#dropShadow)">
    <circle cx="256" cy="256" r="230" fill="url(#bgGrad)"/>
    <circle cx="256" cy="256" r="230" fill="url(#innerGlow)"/>
  </g>

  <!-- Database-lock icon (white, scaled and centered) -->
  <g transform="translate(256,256) scale(18) translate(-8,-8)">
    <path fill="white" d="M8 1c-1.573 0-3.022.289-4.096.777C2.875 2.245 2 2.993 2 4s.875 1.755 1.904 2.223C4.978 6.711 6.427 7 8 7s3.022-.289 4.096-.777C13.125 5.755 14 5.007 14 4s-.875-1.755-1.904-2.223C11.022 1.289 9.573 1 8 1"/>
    <path fill="white" d="M3.904 9.223C2.875 8.755 2 8.007 2 7v-.839c.457.432 1.004.751 1.49.972C4.722 7.693 6.318 8 8 8s3.278-.307 4.51-.867c.486-.22 1.033-.54 1.49-.972V7c0 .424-.155.802-.411 1.133a4.5 4.5 0 0 0-1.364-.125 3 3 0 0 0-2.197.731 4.5 4.5 0 0 0-1.254 1.237A12 12 0 0 1 8 10c-1.573 0-3.022-.289-4.096-.777M8 14c-1.682 0-3.278-.307-4.51-.867-.486-.22-1.033-.54-1.49-.972V13c0 1.007.875 1.755 1.904 2.223C4.978 15.711 6.427 16 8 16q.134 0 .266-.003A2 2 0 0 1 8 15zm0-1.5q0 .15.01.3A2 2 0 0 0 8 13c-1.573 0-3.022-.289-4.096-.777C2.875 11.755 2 11.007 2 10v-.839c.457.432 1.004.751 1.49.972C4.722 10.693 6.318 11 8 11q.13 0 .257-.002A4.5 4.5 0 0 0 8 12.5"/>
    <path fill="white" d="M9 13a1 1 0 0 1 1-1v-1a2 2 0 1 1 4 0v1a1 1 0 0 1 1 1v2a1 1 0 0 1-1 1h-4a1 1 0 0 1-1-1zm3-3a1 1 0 0 0-1 1v1h2v-1a1 1 0 0 0-1-1"/>
  </g>
</svg>
